<svg id="Capa_1" enable-background="new 0 0 512 512" height="512" viewBox="0 0 512 512" width="512" xmlns="http://www.w3.org/2000/svg"><g><g><g><path d="m486.374 198.27v266.35c0 22.03-17.85 39.88-39.87 39.88h-327.6c-18.82 0-34.59-13.04-38.78-30.58l-.16-22.8-.93-135.78v-267.96c0-22.03 17.85-39.88 39.87-39.88h176.7c15.88 0 67.31 43.85 112.77 90.03 41.48 42.15 78 86.24 78 100.74z" fill="#ddeafb"/><path d="m486.374 198.27v97.57c0-.11-.01-.22-.01-.34-3-119.72-100.52-125.26-132.41-157.15l54.42-40.82c41.48 42.15 78 86.24 78 100.74z" fill="#cbe2ff"/><path d="m295.599 7.5h-97.57c.11 0 .22.01.34.01 119.72 3 125.26 100.52 157.15 132.41l40.82-54.42c-42.15-41.48-86.24-78-100.74-78z" fill="#cbe2ff"/><path d="m486.373 198.276v16.868c0-35.514-28.798-64.312-64.312-64.312h-39.143c-22.019 0-39.877-17.858-39.877-39.877v-39.143c0-35.514-28.798-64.312-64.312-64.312h16.868c30.373 0 59.512 12.068 80.989 33.545l76.242 76.242c21.477 21.476 33.545 50.615 33.545 80.989z" fill="#bed8fb"/></g><g><path d="m289.526 303.462c-8.148 48.296-36.462 152.83-131.784 201.034-95.321-48.203-123.623-152.738-131.772-201.034-2.174-12.875 6.455-24.96 19.284-27.375 28.039-5.287 43.707-20.508 52.439-36.691 4.83-8.984 14.248-14.535 24.445-14.535h71.208c10.209 0 19.616 5.551 24.457 14.535 8.721 16.183 24.388 31.404 52.439 36.691 12.829 2.415 21.447 14.5 19.284 27.375z" fill="#617881"/><path d="m157.739 504.5c-95.32-48.21-123.62-152.74-131.77-201.04-2.17-12.87 6.46-24.96 19.29-27.37 28.03-5.29 43.7-20.51 52.43-36.69 4.83-8.99 14.25-14.54 24.45-14.54h9.17c-7.58 0-14.57 5.55-18.16 14.54-6.48 16.18-18.12 31.4-38.94 36.69-9.52 2.41-15.93 14.5-14.32 27.37 6.05 48.3 27.07 152.83 97.85 201.04z" fill="#475959"/><path d="m253.865 307.525c-4.418 21.996-12.658 51.352-27.947 80.558-17.43 33.269-40.308 59.077-68.175 76.93-27.856-17.853-50.734-43.661-68.164-76.93-15.301-29.206-23.541-58.562-27.947-80.558 28.108-7.645 50.15-24.182 64.307-48.33h63.62c14.156 24.148 36.198 40.685 64.306 48.33z" fill="#f1d333"/><path d="m157.751 465.01c-27.86-17.85-50.74-43.66-68.17-76.93-15.3-29.2-23.54-58.56-27.95-80.55 28.11-7.65 50.15-24.19 64.31-48.33h10.24c-9.6 24.14-24.54 40.68-43.6 48.33 2.99 21.99 8.57 51.35 18.95 80.55 11.82 33.27 27.33 59.08 46.22 76.93z" fill="#eab14d"/></g></g><g><path d="m493.874 198.28c0-32.606-12.696-63.253-35.747-86.292l-76.24-76.25c-23.045-23.047-53.691-35.738-86.293-35.738h-176.7c-26.12 0-47.37 21.254-47.37 47.38v210.351c-7.779 5.294-17.009 8.973-27.66 10.979-17.053 3.216-28.159 19.031-25.286 35.994 1.772 10.54 4.087 21.3 6.879 31.983 1.047 4.008 5.145 6.407 9.153 5.36 4.007-1.048 6.407-5.146 5.359-9.153-2.681-10.254-4.901-20.576-6.602-30.686-1.496-8.832 4.335-17.071 13.273-18.757 26.454-4.982 45.848-18.605 57.644-40.493 3.523-6.537 10.366-10.598 17.858-10.598h71.21c7.485 0 14.324 4.061 17.848 10.598 11.796 21.888 31.194 35.512 57.651 40.492 8.934 1.687 14.765 9.928 13.275 18.762-4.131 24.485-13.115 61.419-32.449 98.325-22.548 43.041-53.465 75.158-91.935 95.519-26.517-14.039-49.622-33.828-68.721-58.866-15.993-20.966-29.238-45.64-39.366-73.335-1.423-3.891-5.731-5.89-9.62-4.468-3.89 1.423-5.891 5.729-4.468 9.62 9.638 26.355 22.01 50.15 36.81 70.869l.177 25.735c.135 19.657 12.353 37.195 30.405 43.642 5.106 1.824 10.467 2.749 15.933 2.749h327.59c26.125 0 47.38-21.254 47.38-47.38zm-385.868 296.845c-12.14-4.336-20.358-16.239-20.45-29.619l-.045-6.51c12.848 14.672 27.157 27.375 42.801 38.003h-11.419c-3.741.001-7.404-.63-10.887-1.874zm338.478 1.875h-261.261c31.789-21.573 57.872-51.571 77.743-89.502 20.249-38.651 29.641-77.231 33.953-102.791 2.861-16.969-8.245-32.78-25.288-35.998-21.794-4.103-37.683-15.161-47.226-32.868-6.144-11.4-18.042-18.482-31.052-18.482h-71.21c-13.016 0-24.918 7.082-31.062 18.482-1.382 2.563-2.912 4.971-4.558 7.254v-195.715c0-17.854 14.521-32.38 32.37-32.38h159.84c31.325 0 56.81 25.485 56.81 56.81v39.14c0 18.584 10.945 35.536 27.883 43.185 3.776 1.704 8.218.027 9.922-3.749s.026-8.217-3.749-9.922c-11.577-5.228-19.057-16.813-19.057-29.514v-39.14c0-20.265-8.439-38.597-21.985-51.666 15.94 5.136 30.541 14.018 42.722 26.199l76.241 76.252c12.185 12.179 21.07 26.779 26.207 42.719-13.069-13.546-31.4-21.984-51.665-21.984h-22.37c-4.142 0-7.5 3.358-7.5 7.5s3.358 7.5 7.5 7.5h22.37c31.19 0 56.581 25.267 56.8 56.406v249.884c.002 17.855-14.524 32.38-32.378 32.38z"/><path d="m419.044 225.5h-173.18c-4.142 0-7.5 3.358-7.5 7.5s3.358 7.5 7.5 7.5h173.18c4.142 0 7.5-3.358 7.5-7.5s-3.358-7.5-7.5-7.5z"/><path d="m419.044 265.39h-111.992c-4.142 0-7.5 3.358-7.5 7.5s3.358 7.5 7.5 7.5h111.992c4.142 0 7.5-3.358 7.5-7.5s-3.358-7.5-7.5-7.5z"/><path d="m419.044 305.29h-100.021c-4.142 0-7.5 3.358-7.5 7.5s3.358 7.5 7.5 7.5h100.021c4.142 0 7.5-3.358 7.5-7.5s-3.358-7.5-7.5-7.5z"/><path d="m254.028 122.346c0-4.142-3.358-7.5-7.5-7.5h-100.171c-4.142 0-7.5 3.358-7.5 7.5s3.358 7.5 7.5 7.5h100.171c4.142 0 7.5-3.358 7.5-7.5z"/><path d="m153.699 471.325c1.233.791 2.64 1.186 4.047 1.186s2.814-.395 4.047-1.186c28.949-18.555 52.756-45.389 70.763-79.759 16.21-30.944 24.532-61.979 28.659-82.565.776-3.868-1.579-7.676-5.386-8.711-26.062-7.085-46.742-22.607-59.806-44.888-1.346-2.296-3.808-3.707-6.47-3.707h-63.615c-2.662 0-5.124 1.411-6.47 3.707-13.062 22.281-33.743 37.803-59.806 44.888-3.808 1.035-6.162 4.843-5.386 8.712 4.128 20.588 12.452 51.625 28.661 82.565 18.004 34.368 41.812 61.203 70.762 79.758zm-23.559-204.631h55.211c13.93 21.831 34.418 37.601 59.745 46.019-4.312 19.317-12.096 45.679-25.828 71.892-15.927 30.402-36.608 54.403-61.523 71.413-24.915-17.011-45.596-41.011-61.522-71.413-13.731-26.21-21.516-52.573-25.829-71.892 25.328-8.417 45.818-24.19 59.746-46.019z"/><path d="m151.108 406.074c1.431 1.74 3.56 2.735 5.791 2.735.215 0 .432-.009.648-.028 2.461-.213 4.66-1.625 5.878-3.774l45.226-79.81c2.042-3.604.776-8.181-2.828-10.223-3.605-2.042-8.181-.776-10.223 2.828l-39.843 70.312-26.984-32.804c-2.631-3.199-7.357-3.659-10.557-1.027-3.199 2.631-3.659 7.357-1.027 10.557z"/></g></g></svg>