<svg id="Capa_1" enable-background="new 0 0 512 512" height="512" viewBox="0 0 512 512" width="512" xmlns="http://www.w3.org/2000/svg"><g><g><path d="m475.44 391.695c-1.19 9.92-2.52 19.83-3.98 29.75-143.64 11.8-287.28 11.8-430.92 0-1.46-9.92-2.79-19.83-3.98-29.75-10.46-87.17-10.5-174.34-.1-261.51 2.13-17.83 16.63-31.62 34.54-32.89 123.33-8.7 246.67-8.7 370 0 17.91 1.27 32.41 15.06 34.54 32.89 10.4 87.17 10.36 174.34-.1 261.51z" fill="#617881"/><path d="m475.44 391.695c-1.19 9.92-2.52 19.83-3.98 29.75-143.64 11.8-287.28 11.8-430.92 0-1.46-9.92-2.79-19.83-3.98-29.75 1.99-.35 4.04-.53 6.13-.53h426.62c2.09 0 4.14.18 6.13.53z" fill="#475959"/><path d="m436.06 384.015c-8.92.62-17.85 1.19-26.79 1.72-51.11 3.03-102.45 4.56-153.27 4.56s-102.16-1.53-153.27-4.56c-8.94-.53-17.87-1.1-26.79-1.72-9.61-82.14-9.62-165.05-.01-246.96 8.3-.58 16.61-1.12 24.93-1.62 51.63-3.1 103.69-4.66 155.14-4.66 43.43 0 87.3 1.12 130.98 3.33 16.4.83 32.78 1.81 49.09 2.95 9.61 81.91 9.6 164.82-.01 246.96z" fill="#dd636e"/><path d="m469.315 414.625h-426.63c-19.432 0-35.185 15.753-35.185 35.185 0 19.432 15.753 35.185 35.185 35.185h426.629c19.432 0 35.185-15.753 35.185-35.185.001-19.432-15.752-35.185-35.184-35.185z" fill="#617881"/><path d="m71.56 474.69c6.37 6.37 15.16 10.31 24.88 10.31h-53.75c-9.72 0-18.52-3.94-24.89-10.31-6.36-6.36-10.3-15.16-10.3-24.88 0-19.43 15.75-35.18 35.19-35.18h53.75c-19.43 0-35.18 15.75-35.18 35.18 0 9.72 3.94 18.52 10.3 24.88z" fill="#475959"/><g><g><path d="m411.14 172.325v202.88c0 3.7-.66 7.25-1.87 10.53-51.11 3.03-102.45 4.56-153.27 4.56s-102.16-1.53-153.27-4.56c-.41-1.11-.76-2.26-1.04-3.44l-.12-17.37-.71-103.43v-204.11c0-16.78 13.6-30.38 30.37-30.38h134.6c12.09 0 51.27 33.4 85.9 68.58 12.93 13.14 25.23 26.53 35.25 38.52 14.46 17.3 24.16 31.69 24.16 38.22z" fill="#ddeafb"/><path d="m411.144 172.321v74.322c0-.084-.007-.168-.007-.259-2.285-91.194-76.569-95.414-100.861-119.706l41.453-31.094c31.596 32.107 59.415 65.692 59.415 76.737z" fill="#cbe2ff"/><path d="m265.824 27.006h-74.322c.084 0 .168.007.259.007 91.194 2.285 95.414 76.569 119.706 100.861l31.094-41.453c-32.107-31.597-65.692-59.415-76.737-59.415z" fill="#cbe2ff"/><path d="m411.143 172.325v12.849c0-27.052-21.937-48.988-48.988-48.988h-29.816c-16.773 0-30.376-13.603-30.376-30.376v-29.816c0-27.052-21.937-48.988-48.988-48.988h12.849c23.136 0 45.332 9.193 61.692 25.552l58.076 58.076c16.358 16.359 25.551 38.555 25.551 61.691z" fill="#bed8fb"/></g></g></g><g><path d="m499.503 419.632c-5.272-5.272-11.683-8.984-18.675-10.931.737-5.453 1.429-10.852 2.058-16.113 10.485-87.381 10.519-175.966.101-263.293-2.551-21.354-19.986-37.959-41.46-39.482-23.486-1.653-47.061-2.991-70.146-3.997l-38.562-38.562c-17.893-17.892-41.682-27.747-66.987-27.749-.004 0-.008-.001-.012-.001h-134.59c-20.882 0-37.87 16.993-37.87 37.88v30.916c-7.34.451-14.888.95-22.89 1.513-21.471 1.522-38.906 18.127-41.457 39.483-10.418 87.326-10.385 175.911.101 263.289.63 5.268 1.322 10.672 2.06 16.131-17.961 5.04-31.174 21.55-31.174 41.099 0 11.393 4.437 22.11 12.501 30.188 8.069 8.056 18.79 12.493 30.189 12.493h36.97c4.142 0 7.5-3.358 7.5-7.5s-3.358-7.5-7.5-7.5h-36.97c-7.396 0-14.354-2.879-19.583-8.099-5.228-5.238-8.107-12.192-8.107-19.582 0-15.268 12.422-27.69 27.69-27.69h426.62c7.399 0 14.355 2.881 19.587 8.113 5.225 5.226 8.103 12.178 8.103 19.577 0 15.263-12.422 27.68-27.69 27.68h-356.09c-4.142 0-7.5 3.358-7.5 7.5s3.358 7.5 7.5 7.5h356.09c23.539 0 42.69-19.146 42.69-42.68 0-11.405-4.438-22.125-12.497-30.183zm-177.291-361.771 58.076 58.076c7.308 7.308 13.023 15.785 16.97 25.01-9.646-7.672-21.849-12.261-35.103-12.261h-29.816c-12.614 0-22.876-10.262-22.876-22.876v-29.816c0-13.254-4.588-25.457-12.26-35.103 9.224 3.947 17.7 9.662 25.009 16.97zm-213.852-.476c0-12.616 10.259-22.88 22.87-22.88h121.735.01c22.877 0 41.488 18.612 41.488 41.489v29.816c0 20.885 16.991 37.876 37.876 37.876h29.816c22.838 0 41.423 18.55 41.485 41.373v190.146c0 1.131-.101 2.247-.262 3.35-49.173 2.806-98.607 4.24-147.378 4.24-48.54 0-97.904-1.427-146.835-4.214l-.805-117.086v-204.11zm-14.202 320.313c-3.877-.242-7.711-.489-11.474-.741-8.595-77.419-8.598-155.689-.012-232.848 3.56-.24 7.126-.471 10.688-.696v118.133zm-50.251-246.623c1.699-14.224 13.316-25.284 27.619-26.298 7.621-.536 14.826-1.014 21.833-1.447v25.06c-5.987.376-11.993.767-17.952 1.183-3.597.251-6.506 3.027-6.926 6.608-9.665 82.37-9.661 166.047.009 248.706.419 3.583 3.331 6.36 6.93 6.61 8.617.599 17.656 1.179 26.866 1.725 51.182 3.035 102.899 4.573 153.714 4.573 59.765 0 120.521-2.119 180.581-6.298 3.599-.25 6.509-3.027 6.929-6.61 7.357-62.865 9.126-126.713 5.256-189.771-.253-4.135-3.808-7.281-7.945-7.026-4.134.253-7.28 3.811-7.026 7.945 3.688 60.104 2.181 120.942-4.478 180.924-3.583.241-7.174.451-10.761.677.051-.807.086-1.617.086-2.431v-189.973c0-.02.003-.039.003-.058v-12.849c0-10.062-1.563-19.883-4.564-29.19 5.147.316 10.244.642 15.247.977.714 6.417 1.359 12.733 1.927 18.846.361 3.889 3.629 6.808 7.459 6.808.232 0 .466-.011.702-.033 4.125-.382 7.158-4.036 6.775-8.161-.759-8.186-1.657-16.727-2.669-25.388-.418-3.584-3.33-6.362-6.93-6.612-9.392-.652-19.151-1.274-29.053-1.858-4.353-8.137-9.932-15.675-16.642-22.385l-3.765-3.765c17.663.884 35.529 1.956 53.34 3.21 14.307 1.014 25.924 12.074 27.623 26.297 10.277 86.144 10.244 173.528-.1 259.73-.637 5.327-1.338 10.795-2.087 16.321h-419.814c-.749-5.526-1.45-10.995-2.087-16.324-10.344-86.196-10.377-173.581-.1-259.723z"/><path d="m152.143 206.276h207.715c4.142 0 7.5-3.358 7.5-7.5s-3.358-7.5-7.5-7.5h-207.715c-4.142 0-7.5 3.358-7.5 7.5s3.357 7.5 7.5 7.5z"/><path d="m152.143 236.665h207.715c4.142 0 7.5-3.358 7.5-7.5s-3.358-7.5-7.5-7.5h-207.715c-4.142 0-7.5 3.358-7.5 7.5s3.357 7.5 7.5 7.5z"/><path d="m152.143 267.054h207.715c4.142 0 7.5-3.358 7.5-7.5s-3.358-7.5-7.5-7.5h-207.715c-4.142 0-7.5 3.358-7.5 7.5s3.357 7.5 7.5 7.5z"/><path d="m152.143 297.443h76.303c4.142 0 7.5-3.358 7.5-7.5s-3.358-7.5-7.5-7.5h-76.303c-4.142 0-7.5 3.358-7.5 7.5s3.357 7.5 7.5 7.5z"/><path d="m152.143 121.987h76.303c4.142 0 7.5-3.358 7.5-7.5s-3.358-7.5-7.5-7.5h-76.303c-4.142 0-7.5 3.358-7.5 7.5s3.357 7.5 7.5 7.5z"/></g></g></svg>