<svg id="Capa_1" enable-background="new 0 0 512 512" height="512" viewBox="0 0 512 512" width="512" xmlns="http://www.w3.org/2000/svg"><g><g><g><path d="m428.236 504.496h-277.75c-31.629 0-57.27-25.641-57.27-57.27v-341.646c0-31.629 25.641-57.27 57.27-57.27h277.75c31.629 0 57.27 25.641 57.27 57.27v341.646c-.001 31.629-25.641 57.27-57.27 57.27z" fill="#c67d66"/><path d="m169.738 504.5h-19.257c-31.63 0-57.265-25.645-57.265-57.276v-341.649c0-31.62 25.635-57.265 57.265-57.265h19.257c-31.63 0-57.276 25.645-57.276 57.265v341.649c.001 31.631 25.646 57.276 57.276 57.276z" fill="#aa593d"/><path d="m416.358 452.487h-253.995c-12.748 0-23.083-10.335-23.083-23.083v-306.003c0-12.748 10.335-23.083 23.083-23.083h253.996c12.748 0 23.083 10.335 23.083 23.083v306.004c-.001 12.748-10.335 23.082-23.084 23.082z" fill="#ddeafb"/><path d="m364.129 7.501h-149.537c-20.256 0-36.678 16.421-36.678 36.678v44.724c0 20.256 16.421 36.678 36.678 36.678h149.537c20.256 0 36.677-16.421 36.677-36.678v-44.725c0-20.256-16.421-36.677-36.677-36.677z" fill="#f1d333"/><path d="m243.459 125.576h-28.87c-20.26 0-36.675-16.415-36.675-36.675v-44.726c0-20.25 16.415-36.675 36.675-36.675h28.87c-20.249 0-36.675 16.425-36.675 36.675v44.727c.001 20.26 16.426 36.674 36.675 36.674z" fill="#eab14d"/><g fill="#617881"><circle cx="241.191" cy="65.886" r="24.749"/><circle cx="337.529" cy="65.886" r="24.749"/></g></g><circle cx="150.483" cy="380.507" fill="#dd636e" r="123.993"/><path d="m169.771 503.01c-6.28.98-12.73 1.49-19.29 1.49-68.48 0-123.99-55.51-123.99-123.99s55.51-124 123.99-124c6.56 0 13.01.51 19.29 1.49-59.32 9.27-104.71 60.59-104.71 122.51-.001 61.92 45.39 113.24 104.71 122.5z" fill="#da4a54"/></g><g><path d="m241.191 33.637c-17.782 0-32.249 14.467-32.249 32.249s14.467 32.249 32.249 32.249 32.249-14.467 32.249-32.249-14.466-32.249-32.249-32.249zm0 49.498c-9.511 0-17.249-7.738-17.249-17.249s7.738-17.249 17.249-17.249 17.249 7.738 17.249 17.249-7.738 17.249-17.249 17.249z"/><path d="m369.778 65.886c0-17.782-14.467-32.249-32.249-32.249s-32.249 14.467-32.249 32.249 14.467 32.249 32.249 32.249 32.249-14.467 32.249-32.249zm-32.249 17.249c-9.511 0-17.249-7.738-17.249-17.249s7.738-17.249 17.249-17.249 17.249 7.738 17.249 17.249-7.738 17.249-17.249 17.249z"/><path d="m428.238 40.81h-20.078c-1.728-22.791-20.807-40.81-44.028-40.81h-149.54c-23.225 0-42.309 18.019-44.038 40.81h-20.065c-35.715 0-64.771 29.056-64.771 64.77v160.522c-39.811 22.629-66.726 65.431-66.726 114.407 0 21.191 5.161 42.25 14.926 60.899 1.922 3.67 6.456 5.085 10.123 3.166 3.67-1.921 5.087-6.454 3.166-10.124-8.769-16.747-13.215-34.896-13.215-53.941 0-64.238 52.257-116.5 116.49-116.5 64.232 0 116.489 52.262 116.489 116.5 0 54.448-37.549 100.292-88.112 112.995-9.086 2.283-18.593 3.496-28.378 3.496-32.603 0-62.829-13.124-85.111-36.953-2.831-3.025-7.576-3.186-10.602-.355-3.025 2.829-3.185 7.575-.355 10.601 24.787 26.505 59.803 41.707 96.069 41.707h.006 277.75c35.714 0 64.77-29.056 64.77-64.77v-341.65c0-35.714-29.056-64.77-64.77-64.77zm-327.52 64.77c0-27.443 22.327-49.77 49.771-49.77h19.924v33.09c0 1.322.069 2.627.184 3.92h-8.228c-16.862 0-30.58 13.718-30.58 30.58v126.945c-10.836 1.549-21.248 4.424-31.07 8.455v-153.22zm49.764 143.43c-1.236 0-2.467.021-3.694.055v-125.665c0-8.591 6.989-15.58 15.58-15.58h12.309c7.101 14.92 22.321 25.26 39.915 25.26h132.761c4.143 0 7.5-3.358 7.5-7.5s-3.357-7.5-7.5-7.5h-132.761c-16.09 0-29.18-13.09-29.18-29.18v-44.72c0-16.09 13.09-29.18 29.18-29.18h149.54c16.084 0 29.17 13.09 29.17 29.18v44.72c0 11.146-6.199 21.162-16.177 26.138-3.707 1.849-5.214 6.352-3.365 10.059 1.849 3.706 6.354 5.212 10.059 3.365 9.101-4.539 16.103-11.858 20.248-20.642h12.292c8.597 0 15.59 6.989 15.59 15.58v306c0 8.597-6.993 15.59-15.59 15.59h-151.319c10.773-19.064 16.932-41.065 16.932-64.48 0-72.51-58.987-131.5-131.49-131.5zm327.526 198.22c0 27.443-22.326 49.77-49.77 49.77h-216.823c17.155-9.01 32.087-21.697 43.742-37.01h161.201c16.867 0 30.59-13.723 30.59-30.59v-306c0-16.862-13.723-30.58-30.59-30.58h-8.247c.113-1.296.19-2.6.19-3.92v-33.09h19.937c27.443 0 49.77 22.327 49.77 49.77z"/><path d="m185.026 177.499h208.668c4.143 0 7.5-3.358 7.5-7.5s-3.357-7.5-7.5-7.5h-208.668c-4.143 0-7.5 3.358-7.5 7.5s3.358 7.5 7.5 7.5z"/><path d="m401.194 209.894c0-4.142-3.357-7.5-7.5-7.5h-208.668c-4.143 0-7.5 3.358-7.5 7.5s3.357 7.5 7.5 7.5h208.668c4.143 0 7.5-3.358 7.5-7.5z"/><path d="m401.194 249.789c0-4.142-3.357-7.5-7.5-7.5h-175.668c-4.143 0-7.5 3.358-7.5 7.5s3.357 7.5 7.5 7.5h175.668c4.143 0 7.5-3.358 7.5-7.5z"/><path d="m401.194 289.684c0-4.142-3.357-7.5-7.5-7.5h-127.014c-4.143 0-7.5 3.358-7.5 7.5s3.357 7.5 7.5 7.5h127.015c4.142 0 7.499-3.358 7.499-7.5z"/><path d="m89.762 441.228c1.465 1.464 3.384 2.197 5.304 2.197 1.919 0 3.839-.732 5.304-2.197l50.114-50.114 50.114 50.114c1.465 1.464 3.385 2.197 5.304 2.197 1.92 0 3.839-.732 5.304-2.197 2.929-2.929 2.929-7.678 0-10.606l-50.115-50.115 50.115-50.115c2.929-2.929 2.929-7.678 0-10.606s-7.677-2.93-10.607 0l-50.116 50.114-50.114-50.114c-2.93-2.929-7.678-2.929-10.607 0s-2.929 7.678 0 10.606l50.115 50.115-50.115 50.115c-2.929 2.928-2.929 7.677 0 10.606z"/></g></g></svg>